# xmcd
#
# Track frame offsets:
# 150
# 39637
# 54721
# 64890
# 97615
# 116339
# 131977
# 199067
#
# Disc length: 2859 seconds
#
# Revision: 0
# Processed by: cddbd v1.5.2PL0 Copyright (c) Steve Scherf et al.
# Submitted via: Audion 3.0.2 (http://www.panic.com/audion/)
#
DISCID=6e0b2908
DTITLE=fraank zappa - dortmund germany 79 mar 25
DYEAR=1900
DGENRE=
TTITLE0=persona no gratias
TTITLE1=dead girls of london
TTITLE2=no heart to give away
TTITLE3=brn shoes
TTITLE4=cosmik debris
TTITLE5=ty'n to grow a chin
TTITLE6=city of tiny lights
TTITLE7=dance'n fool
EXTD=
EXTT0=
EXTT1=
EXTT2=
EXTT3=
EXTT4=
EXTT5=
EXTT6=
EXTT7=
PLAYORDER=
